<?xml version="1.0" encoding="UTF-8"?>
<!DOCTYPE svg PUBLIC "-//W3C//DTD SVG 1.1//EN" "http://www.w3.org/Graphics/SVG/1.1/DTD/svg11.dtd">
<!-- Creator: CorelDRAW X7 -->
<svg xmlns="http://www.w3.org/2000/svg" xml:space="preserve" width="242px" height="188px" version="1.1" style="shape-rendering:geometricPrecision; text-rendering:geometricPrecision; image-rendering:optimizeQuality; fill-rule:evenodd; clip-rule:evenodd"
viewBox="0 0 50 39"
 xmlns:xlink="http://www.w3.org/1999/xlink">
 <defs>
  <style type="text/css">
   <![CDATA[
    .fil0 {fill:#FEFEFE}
   ]]>
  </style>
 </defs>
 <g id="Camada_x0020_1">
  <metadata id="CorelCorpID_0Corel-Layer"/>
  <path class="fil0" d="M39 23c-2,-2 -10,-15 -14,-8 -1,1 -2,3 -3,3 -1,1 -2,1 -2,0 -2,-2 -1,-2 1,-6l2 -5c-1,0 -3,1 -4,1 -3,0 -5,0 -6,1l-4 4c-1,2 -3,4 -1,7l4 5c1,-1 3,-3 4,-4 1,0 4,-1 4,3 2,0 3,2 2,4 2,0 4,1 3,3 1,0 1,0 2,1 0,0 0,1 0,2 0,1 -1,2 -2,2 1,2 4,4 7,2 1,-1 1,-2 3,-2 1,-1 1,-2 1,-4 3,-1 3,-1 3,-4 2,0 2,-1 3,-2 1,-2 0,-3 -1,-5 -1,1 -1,2 -2,2zm0 -2c1,0 1,-1 2,-1 0,-1 1,-1 1,-2 1,-1 -1,-3 -1,-3l-4 -5c-1,0 -1,-1 -1,-1 -2,-2 -5,-4 -8,-3 -4,1 -5,5 -7,9 -1,1 -1,1 0,2 0,1 1,0 1,0 2,-2 2,-6 6,-6 4,0 8,6 11,9 0,1 0,1 0,1zm-37 -8c1,0 1,0 2,0l0 1c-1,1 -2,1 -2,-1zm12 -9c0,-1 0,-2 -1,-3 -2,-2 -3,-1 -5,1l-6 8c-1,1 -2,1 -2,2 -1,2 2,4 3,4 2,0 3,-3 4,-4 1,-1 6,-7 7,-8zm34 10l-1 0c-1,-2 2,-1 1,0zm-11 -10c0,0 5,7 6,8 1,1 2,3 4,4 1,0 4,-2 3,-4 0,-1 -7,-9 -8,-10 0,-1 -1,-2 -2,-2 -1,0 -2,0 -3,1 0,1 -1,1 0,3zm-14 25c-1,0 -1,1 -2,1 0,1 -4,3 -2,4 1,1 1,0 2,-1 1,-1 3,-2 2,-4zm-5 -5c1,-1 0,-2 -1,-2 0,1 -1,1 -1,2 0,0 -2,2 -3,2 0,1 1,2 2,1l3 -3zm-2 6c1,2 1,0 3,-1 2,-2 2,-2 1,-3 -1,0 -1,0 -1,0 -1,1 -1,1 -1,1 -1,2 -2,2 -2,3zm10 3c-2,-1 -1,0 -2,0 -1,1 -4,3 -2,4 0,0 2,-1 2,-2 2,-1 2,-1 2,-2z"/>
 </g>
</svg>
