<?xml version="1.0" encoding="UTF-8"?>
<!DOCTYPE svg PUBLIC "-//W3C//DTD SVG 1.1//EN" "http://www.w3.org/Graphics/SVG/1.1/DTD/svg11.dtd">
<!-- Creator: CorelDRAW X7 -->
<svg xmlns="http://www.w3.org/2000/svg" xml:space="preserve" width="193px" height="220px" version="1.1" style="shape-rendering:geometricPrecision; text-rendering:geometricPrecision; image-rendering:optimizeQuality; fill-rule:evenodd; clip-rule:evenodd"
viewBox="0 0 1267 1441"
 xmlns:xlink="http://www.w3.org/1999/xlink">
 <defs>
  <style type="text/css">
   <![CDATA[
    .fil0 {fill:#FEFEFE}
   ]]>
  </style>
 </defs>
 <g id="Camada_x0020_1">
  <metadata id="CorelCorpID_0Corel-Layer"/>
  <path class="fil0" d="M436 1193l104 -43c128,-56 52,-62 194,1 22,10 90,32 103,42 -28,81 -103,200 -199,203 -98,2 -176,-121 -202,-203zm-241 -435c21,25 50,50 73,73 55,55 42,35 49,95 11,89 29,157 55,234 -115,44 -309,53 -322,-85 -11,-110 96,-265 145,-317zm705 404c16,-85 37,-106 52,-237 9,-71 7,-55 49,-92 14,-13 24,-23 37,-36 13,-14 22,-28 37,-37 56,50 277,381 28,425 -72,12 -139,-9 -203,-23zm-536 -242l108 79c19,14 101,65 111,76 -25,21 -127,61 -163,71 -23,-26 -53,-180 -56,-226zm488 227c-38,-11 -141,-51 -166,-72 1,-1 2,-4 3,-3l164 -114c16,-13 37,-33 53,-41 -1,46 -30,202 -54,230zm-501 -395l3 -127c2,-38 0,-31 22,-49 34,-28 229,-179 257,-180 27,-2 220,148 259,179 33,26 29,49 29,118l-3 121c-3,32 1,34 -22,51 -52,40 -208,164 -263,184 -84,-43 -180,-120 -255,-178 -23,-18 -22,-10 -24,-49 -1,-23 -3,-48 -3,-70zm614 50l1 -55 0 -54 -1 -50c29,18 53,60 79,75 -11,22 -61,74 -79,84zm-659 -162l1 164c-24,-15 -63,-59 -81,-80 11,-20 62,-70 80,-84zm58 -116c5,-87 32,-153 50,-228 33,7 154,56 169,74l-167 115c-16,12 -36,32 -52,39zm318 -153c1,0 2,-2 3,-2 18,-17 58,-32 79,-41 31,-14 57,-24 88,-34 22,25 52,185 56,232l-112 -82c-37,-25 -75,-53 -114,-73zm220 -91c116,-33 305,-57 318,90 9,102 -99,272 -145,315l-72 -71c-44,-42 -39,-17 -49,-96 -10,-74 -52,-235 -52,-238zm-712 405c-35,-63 -158,-191 -142,-319 21,-171 292,-101 321,-83 -6,33 -23,76 -31,114 -43,192 8,140 -74,218 -18,17 -53,61 -74,70zm245 -433c26,-83 104,-208 203,-206 99,2 178,131 199,205 -37,13 -72,27 -107,43 -128,57 -58,61 -193,-1 -26,-12 -82,-28 -102,-41zm-47 -16c-33,-2 -78,-17 -112,-22 -111,-16 -246,1 -273,130 -20,98 52,228 105,302 12,17 51,65 56,79 -54,59 -188,249 -159,378 10,43 30,61 53,83 90,89 264,26 330,19 34,41 86,237 250,236 103,0 164,-84 205,-157 13,-23 24,-55 41,-77 34,1 77,16 114,22 108,16 236,-7 265,-130 35,-153 -146,-350 -157,-379 53,-69 185,-240 157,-376 -14,-68 -67,-115 -137,-129 -103,-21 -188,17 -242,20 -25,-35 -36,-88 -91,-152 -34,-38 -79,-83 -160,-83 -160,0 -212,194 -245,236zm221 384c-145,37 -85,235 54,202 137,-32 89,-239 -54,-202z"/>
 </g>
</svg>
