<?xml version="1.0" encoding="UTF-8"?>
<!DOCTYPE svg PUBLIC "-//W3C//DTD SVG 1.1//EN" "http://www.w3.org/Graphics/SVG/1.1/DTD/svg11.dtd">
<!-- Creator: CorelDRAW X7 -->
<svg xmlns="http://www.w3.org/2000/svg" xml:space="preserve" width="213px" height="211px" version="1.1" style="shape-rendering:geometricPrecision; text-rendering:geometricPrecision; image-rendering:optimizeQuality; fill-rule:evenodd; clip-rule:evenodd"
viewBox="0 0 35 35"
 xmlns:xlink="http://www.w3.org/1999/xlink">
 <defs>
  <style type="text/css">
   <![CDATA[
    .fil0 {fill:#FEFEFE}
   ]]>
  </style>
 </defs>
 <g id="Camada_x0020_1">
  <metadata id="CorelCorpID_0Corel-Layer"/>
  <path class="fil0" d="M8 0l1 0c1,0 2,1 2,2l0 4 4 0c1,0 2,1 2,2l0 1c0,1 -1,2 -2,2l-4 0 0 4c0,1 -1,2 -2,2l-1 0c-1,0 -2,-1 -2,-2l0 -4 -4 0c-1,0 -2,-1 -2,-2l0 -1c0,-1 1,-2 2,-2l4 0 0 -4c0,-1 1,-2 2,-2zm25 21l1 2c1,0 1,1 0,2l-3 3 3 3c1,1 1,2 0,2l-1 1c0,1 -1,1 -2,0l-3 -3 -3 3c-1,1 -2,1 -2,0l-1 -1c-1,0 -1,-1 0,-2l3 -3 -3 -3c-1,-1 -1,-2 0,-2l1 -2c0,0 1,0 2,0l3 3 3 -3c1,0 2,0 2,0zm-11 -15l12 0c0,0 1,1 1,1l0 2c0,1 -1,2 -1,2l-12 0c-1,0 -1,-1 -1,-2l0 -2c0,0 0,-1 1,-1zm-20 19l11 0c1,0 2,1 2,2l0 2c0,1 -1,1 -2,1l-11 0c-1,0 -2,0 -2,-1l0 -2c0,-1 1,-2 2,-2zm5 -4c1,0 2,1 2,2 0,1 -1,2 -2,2 -1,0 -1,-1 -1,-2 0,-1 0,-2 1,-2zm0 10c1,0 2,1 2,2 0,1 -1,1 -2,1 -1,0 -1,0 -1,-1 0,-1 0,-2 1,-2z"/>
 </g>
</svg>
