<?xml version="1.0" encoding="UTF-8"?>
<!DOCTYPE svg PUBLIC "-//W3C//DTD SVG 1.1//EN" "http://www.w3.org/Graphics/SVG/1.1/DTD/svg11.dtd">
<!-- Creator: CorelDRAW X7 -->
<svg xmlns="http://www.w3.org/2000/svg" xml:space="preserve" width="173px" height="231px" version="1.1" style="shape-rendering:geometricPrecision; text-rendering:geometricPrecision; image-rendering:optimizeQuality; fill-rule:evenodd; clip-rule:evenodd"
viewBox="0 0 729 975"
 xmlns:xlink="http://www.w3.org/1999/xlink">
 <defs>
  <style type="text/css">
   <![CDATA[
    .fil0 {fill:#FEFEFE}
   ]]>
  </style>
 </defs>
 <g id="Camada_x0020_1">
  <metadata id="CorelCorpID_0Corel-Layer"/>
  <path class="fil0" d="M595 143l0 0c-5,0 -10,4 -10,10l0 99c0,5 5,9 10,9l0 0c6,0 10,-4 10,-9l0 -99c0,-6 -4,-10 -10,-10zm87 255l34 19c0,0 -18,11 -34,22 58,77 66,250 0,339 0,0 4,92 -18,119 -20,3 -48,-12 -65,-23 -2,1 -3,2 -5,2 -2,20 -9,56 -30,71 -21,-4 -45,-27 -59,-43 -1,0 -3,1 -4,1 -6,19 -18,53 -40,64 -21,-7 -42,-35 -53,-53l-3 0c-9,19 -20,50 -40,59 -1,0 -1,0 -2,-1 0,1 -1,1 -1,1 -21,-9 -44,-41 -52,-60 -1,0 -2,0 -2,0 -11,17 -32,47 -54,54 -23,-12 -36,-49 -41,-68 0,0 0,0 -1,0 -13,16 -38,42 -61,46 -21,-15 -27,-50 -30,-70 -17,11 -42,23 -60,20 -21,-25 -19,-104 -19,-117 -63,-88 -49,-246 0,-340 -17,-11 -35,-23 -35,-23l35 -19 0 -127c2,1 4,1 6,2 18,6 48,25 65,33 80,36 164,56 249,56 85,0 169,-20 249,-56 17,-8 47,-27 65,-33 2,-1 4,-1 6,-2l0 127zm-234 304c-23,27 -55,77 -85,111 -29,-34 -64,-84 -87,-111 60,-62 99,-73 172,0zm-236 -397c97,44 197,49 295,0 10,-5 11,-12 11,-19l1 -103c-37,6 -128,72 -160,71 -30,-1 -119,-64 -156,-72l0 106c1,6 1,14 9,17zm146 -305c-30,15 -263,86 -255,98 3,6 168,86 198,101 87,42 52,31 203,-42 22,-11 44,-21 67,-33 30,-16 48,-21 51,-25 5,-8 -227,-83 -264,-99zm-137 461c59,0 107,48 107,107 0,59 -48,107 -107,107 -60,0 -108,-48 -108,-107 0,-59 48,-107 108,-107zm287 0c59,0 107,48 107,107 0,59 -48,107 -107,107 -59,0 -107,-48 -107,-107 0,-59 48,-107 107,-107zm-3 74c18,0 33,14 33,32 0,18 -15,32 -33,32 -18,0 -32,-14 -32,-32 0,-18 14,-32 32,-32zm-283 0c18,0 33,14 33,32 0,18 -15,32 -33,32 -17,0 -32,-14 -32,-32 0,-18 15,-32 32,-32z"/>
 </g>
</svg>
