<?xml version="1.0" encoding="UTF-8"?>
<!DOCTYPE svg PUBLIC "-//W3C//DTD SVG 1.1//EN" "http://www.w3.org/Graphics/SVG/1.1/DTD/svg11.dtd">
<!-- Creator: CorelDRAW X7 -->
<svg xmlns="http://www.w3.org/2000/svg" xml:space="preserve" width="158px" height="215px" version="1.1" style="shape-rendering:geometricPrecision; text-rendering:geometricPrecision; image-rendering:optimizeQuality; fill-rule:evenodd; clip-rule:evenodd"
viewBox="0 0 42 58"
 xmlns:xlink="http://www.w3.org/1999/xlink">
 <defs>
  <style type="text/css">
   <![CDATA[
    .fil0 {fill:#FEFEFE}
   ]]>
  </style>
 </defs>
 <g id="Camada_x0020_1">
  <metadata id="CorelCorpID_0Corel-Layer"/>
  <path class="fil0" d="M17 45c-1,-4 4,-4 5,-1 0,3 -5,4 -5,1zm-4 -11c2,-1 4,0 4,2 1,2 0,3 -1,4 -5,1 -7,-5 -3,-6zm-8 4c0,4 1,9 4,11 1,1 2,1 2,2 5,3 12,4 17,1 9,-4 12,-14 7,-21 0,-1 0,-2 -1,-2 -8,1 -13,2 -21,1 -1,0 -4,-1 -5,-1 0,1 -1,1 -1,2 -1,2 -2,4 -2,7zm9 -22c1,0 6,0 4,-1 -1,-1 -3,-1 -4,-1l0 -2c2,0 5,1 6,0 1,-1 0,-2 -2,-2 -1,0 -3,0 -4,0 0,-3 -1,-2 -3,-3 -1,-1 -2,-2 -1,-4 2,-2 8,-1 11,-1 4,0 10,-1 10,3 0,2 -2,2 -3,3 -2,0 -1,1 -1,5 0,2 0,4 0,6 0,2 0,1 3,3 2,1 6,3 7,5 9,12 1,27 -14,29 -6,0 -13,-2 -17,-7 -6,-8 -6,-19 3,-25 2,-1 3,-2 4,-3 2,0 1,-3 1,-5zm15 -6c1,-1 3,-2 3,-3 1,-2 1,-4 0,-5 -3,-3 -8,-2 -12,-2 -4,0 -9,-1 -11,2 -1,1 -2,3 -1,5 1,1 2,2 4,3l0 9c0,1 -1,1 -1,1 -2,1 -3,2 -4,3 -2,2 -3,3 -4,5 -3,4 -4,10 -2,15 1,5 4,8 7,10 4,3 8,5 14,5 18,-1 28,-23 12,-36 -2,-1 -3,-2 -5,-3l0 -9z"/>
 </g>
</svg>
